<svg width="513" height="513" viewBox="0 0 513 513" fill="none" xmlns="http://www.w3.org/2000/svg">
<path d="M416.492 64.0232H96.4922C79.524 64.0417 63.2561 70.7905 51.2578 82.7888C39.2595 94.7871 32.5107 111.055 32.4922 128.023V384.023C32.5107 400.991 39.2595 417.259 51.2578 429.258C63.2561 441.256 79.524 448.005 96.4922 448.023H416.492C433.46 448.005 449.728 441.256 461.727 429.258C473.725 417.259 480.474 400.991 480.492 384.023V128.023C480.474 111.055 473.725 94.7871 461.727 82.7888C449.728 70.7905 433.46 64.0417 416.492 64.0232V64.0232ZM336.492 128.023C345.986 128.023 355.266 130.838 363.16 136.113C371.053 141.387 377.205 148.884 380.838 157.654C384.471 166.425 385.422 176.076 383.57 185.388C381.718 194.699 377.146 203.251 370.433 209.964C363.72 216.677 355.168 221.249 345.857 223.101C336.545 224.953 326.894 224.002 318.123 220.369C309.353 216.736 301.856 210.584 296.582 202.691C291.307 194.797 288.492 185.517 288.492 176.023C288.505 163.297 293.567 151.096 302.566 142.097C311.565 133.098 323.766 128.036 336.492 128.023V128.023ZM96.4922 416.023C88.0053 416.023 79.8659 412.652 73.8648 406.651C67.8636 400.649 64.4922 392.51 64.4922 384.023V316.393L159.332 232.093C168.483 223.978 180.383 219.656 192.609 220.009C204.834 220.362 216.465 225.363 225.132 233.993L290.082 298.803L172.862 416.023H96.4922ZM448.492 384.023C448.492 392.51 445.121 400.649 439.12 406.651C433.118 412.652 424.979 416.023 416.492 416.023H218.122L339.542 294.603C348.139 287.292 359.048 283.265 370.333 283.236C381.618 283.206 392.548 287.177 401.182 294.443L448.492 333.863V384.023Z" fill="#E94057"/>
</svg>
