<svg width="20" height="21" viewBox="0 0 20 21" fill="none" xmlns="http://www.w3.org/2000/svg">
<path d="M9.74562 0.976013C13.4587 0.976013 16.4688 4.16773 16.4688 8.10495C16.4688 10.6089 15.379 13.141 13.5571 15.6118C12.9105 16.4887 12.2073 17.3063 11.4868 18.051C11.4275 18.1124 11.3691 18.1721 11.3118 18.2302L10.9812 18.559L10.6794 18.8474L10.4099 19.0942L10.2453 19.2388C9.95645 19.4884 9.54248 19.4904 9.25152 19.2436L9.07941 19.0925L8.81111 18.8468L8.50989 18.5589L8.17946 18.2302L8.00444 18.051C7.284 17.3063 6.58077 16.4887 5.93415 15.6118C4.11225 13.141 3.02246 10.6089 3.02246 8.10495C3.02246 4.16773 6.03251 0.976013 9.74562 0.976013ZM9.74562 2.65341C6.90618 2.65341 4.60438 5.09413 4.60438 8.10495C4.60438 10.1649 5.55574 12.3754 7.18035 14.5786C7.78017 15.392 8.4363 16.1549 9.10869 16.8499L9.42723 17.173C9.53218 17.2774 9.63728 17.382 9.74562 17.4824L10.064 17.1731L10.3826 16.8499C11.0549 16.1549 11.7111 15.392 12.3109 14.5786C13.9355 12.3754 14.8869 10.1649 14.8869 8.10495C14.8869 5.09413 12.5851 2.65341 9.74562 2.65341ZM9.74562 4.75016C11.493 4.75016 12.9095 6.25215 12.9095 8.10495C12.9095 9.95775 11.493 11.4597 9.74562 11.4597C7.99829 11.4597 6.58178 9.95775 6.58178 8.10495C6.58178 6.25215 7.99829 4.75016 9.74562 4.75016ZM9.74562 6.42755C8.87196 6.42755 8.1637 7.17855 8.1637 8.10495C8.1637 9.03134 8.87196 9.78234 9.74562 9.78234C10.6193 9.78234 11.3275 9.03134 11.3275 8.10495C11.3275 7.17855 10.6193 6.42755 9.74562 6.42755Z" fill="white"/>
</svg>
