<svg width="513" height="513" viewBox="0 0 513 513" fill="none" xmlns="http://www.w3.org/2000/svg">
<path d="M221.503 64.4512C190.433 64.4512 160.062 73.6643 134.228 90.9256C108.395 108.187 88.2604 132.721 76.3707 161.425C64.4809 190.13 61.37 221.715 67.4313 252.188C73.4927 282.66 88.4541 310.651 110.423 332.621C132.393 354.59 160.384 369.551 190.856 375.613C221.329 381.674 252.914 378.563 281.619 366.673C310.323 354.784 334.857 334.649 352.118 308.816C369.38 282.982 378.593 252.611 378.593 221.541C378.59 179.879 362.039 139.924 332.579 110.465C303.12 81.0052 263.165 64.4538 221.503 64.4512V64.4512Z" stroke="#E94057" stroke-width="32" stroke-miterlimit="10"/>
<path d="M338.703 338.741L448.413 448.451" stroke="#E94057" stroke-width="32" stroke-miterlimit="10" stroke-linecap="round"/>
</svg>
